<?xml version="1.0" encoding="utf-8"?>
<!-- Generator: Adobe Illustrator 22.0.1, SVG Export Plug-In . SVG Version: 6.00 Build 0)  -->
<svg version="1.1" id="Layer_1" xmlns="http://www.w3.org/2000/svg" xmlns:xlink="http://www.w3.org/1999/xlink" x="0px" y="0px"
	 viewBox="0 0 1366 768" style="enable-background:new 0 0 1366 768;" xml:space="preserve">
<style type="text/css">
	.st0{fill:none;}
	.st1{fill:#231F20;}
	.st2{opacity:9.000000e-02;fill:url(#SVGID_1_);}
</style>
<pattern  width="72" height="72" patternUnits="userSpaceOnUse" id="Stipple_Fine" viewBox="0 -72.7 72 72" style="overflow:visible;">
	<g>
		<rect y="-72.7" class="st0" width="72" height="72"/>
		<g>
			<path class="st1" d="M55.8,0c-0.1,0-0.2,0-0.3-0.1c-0.1-0.1-0.1-0.2-0.1-0.3c0-0.1,0-0.2,0.1-0.3c0.1-0.1,0.4-0.1,0.5,0
				c0.1,0.1,0.1,0.2,0.1,0.3c0,0.1,0,0.2-0.1,0.3C56,0,55.9,0,55.8,0z"/>
			<path class="st1" d="M3.1-0.6c-0.1,0-0.2,0-0.3-0.1C2.8-0.7,2.7-0.8,2.7-0.9c0-0.1,0-0.2,0.1-0.3c0.1-0.1,0.4-0.1,0.5,0
				C3.4-1.1,3.5-1,3.5-0.9c0,0.1,0,0.2-0.1,0.3C3.3-0.6,3.2-0.6,3.1-0.6z"/>
			<path class="st1" d="M17.9-0.6c-0.1,0-0.2,0-0.3-0.1c-0.1-0.1-0.1-0.2-0.1-0.3c0-0.1,0-0.2,0.1-0.3c0.1-0.1,0.4-0.1,0.5,0
				c0.1,0.1,0.1,0.2,0.1,0.3c0,0.1,0,0.2-0.1,0.3C18.1-0.6,18-0.6,17.9-0.6z"/>
			<path class="st1" d="M39.7-0.4c-0.1,0-0.2,0-0.3-0.1c-0.1-0.1-0.1-0.2-0.1-0.3s0-0.2,0.1-0.3c0.2-0.2,0.4-0.2,0.5,0
				C40-1,40-0.8,40-0.8s0,0.2-0.1,0.3C39.9-0.4,39.8-0.4,39.7-0.4z"/>
		</g>
		<g>
			<path class="st1" d="M12.3-2.8c-0.1,0-0.2,0-0.3-0.1c-0.1-0.1-0.1-0.2-0.1-0.3c0-0.1,0-0.2,0.1-0.3c0.1-0.1,0.4-0.1,0.5,0
				c0.1,0.1,0.1,0.2,0.1,0.3c0,0.1,0,0.2-0.1,0.3C12.5-2.8,12.4-2.8,12.3-2.8z"/>
			<path class="st1" d="M0.5-3C0.4-3,0.3-3,0.2-3.1C0.1-3.2,0.1-3.3,0.1-3.4c0-0.1,0-0.2,0.1-0.3c0.1-0.1,0.4-0.1,0.5,0
				c0.1,0.1,0.1,0.2,0.1,0.3c0,0.1,0,0.2-0.1,0.3C0.7-3,0.6-3,0.5-3z"/>
			<path class="st1" d="M9.8-4.3c-0.1,0-0.2,0-0.3-0.1C9.5-4.5,9.5-4.6,9.5-4.7c0-0.1,0-0.2,0.1-0.3c0.1-0.1,0.4-0.1,0.5,0
				c0.1,0.1,0.1,0.2,0.1,0.3c0,0.1,0,0.2-0.1,0.3C10-4.3,9.9-4.3,9.8-4.3z"/>
			<path class="st1" d="M19-5.4c-0.1,0-0.2,0-0.3-0.1c-0.1-0.1-0.1-0.2-0.1-0.3c0-0.1,0-0.2,0.1-0.3c0.1-0.1,0.4-0.1,0.5,0
				c0.1,0.1,0.1,0.2,0.1,0.3c0,0.1,0,0.2-0.1,0.3C19.2-5.5,19.1-5.4,19-5.4z"/>
			<path class="st1" d="M3.1-0.6c-0.1,0-0.2,0-0.3-0.1C2.8-0.7,2.7-0.8,2.7-0.9c0-0.1,0-0.2,0.1-0.3c0.1-0.1,0.4-0.1,0.5,0
				C3.4-1.1,3.5-1,3.5-0.9c0,0.1,0,0.2-0.1,0.3C3.3-0.6,3.2-0.6,3.1-0.6z"/>
			<path class="st1" d="M6.5-6.9c-0.1,0-0.2,0-0.3-0.1C6.1-7.1,6.1-7.2,6.1-7.3c0-0.1,0-0.2,0.1-0.3c0.1-0.1,0.4-0.1,0.5,0
				c0.1,0.1,0.1,0.2,0.1,0.3c0,0.1,0,0.2-0.1,0.3C6.7-7,6.6-6.9,6.5-6.9z"/>
			<path class="st1" d="M23.9-2.1c-0.1,0-0.2,0-0.3-0.1c-0.1-0.1-0.1-0.2-0.1-0.3c0-0.1,0-0.2,0.1-0.3c0.1-0.1,0.4-0.1,0.5,0
				c0.1,0.1,0.1,0.2,0.1,0.3c0,0.1,0,0.2-0.1,0.3C24.1-2.1,24-2.1,23.9-2.1z"/>
			<path class="st1" d="M26.3-0.8c-0.1,0-0.2,0-0.3-0.1C26-0.9,26-1,26-1.1c0-0.1,0-0.2,0.1-0.3c0.1-0.1,0.4-0.1,0.5,0
				c0.1,0.1,0.1,0.2,0.1,0.3c0,0.1,0,0.2-0.1,0.3C26.5-0.8,26.4-0.8,26.3-0.8z"/>
			<path class="st1" d="M28.4-5.1c-0.1,0-0.2,0-0.3-0.1C28.1-5.2,28-5.3,28-5.4c0-0.1,0-0.2,0.1-0.3c0.1-0.1,0.4-0.1,0.5,0
				c0.1,0.1,0.1,0.2,0.1,0.3c0,0.1,0,0.2-0.1,0.3C28.6-5.1,28.5-5.1,28.4-5.1z"/>
			<path class="st1" d="M40.2-6C40.1-6,40-6,40-6.1c-0.1-0.1-0.1-0.2-0.1-0.3c0-0.1,0-0.2,0.1-0.3c0.1-0.1,0.4-0.1,0.5,0
				c0.1,0.1,0.1,0.2,0.1,0.3c0,0.1,0,0.2-0.1,0.3C40.4-6,40.3-6,40.2-6z"/>
			<path class="st1" d="M48.7-4.7c-0.1,0-0.2,0-0.3-0.1c-0.1-0.1-0.1-0.2-0.1-0.3c0-0.1,0.1-0.2,0.1-0.3c0.1-0.1,0.4-0.1,0.5,0
				C49-5.3,49-5.2,49-5.1c0,0.1,0,0.2-0.1,0.3C48.9-4.7,48.8-4.7,48.7-4.7z"/>
			<path class="st1" d="M34.4-6.6c-0.1,0-0.2,0-0.3-0.1C34.1-6.7,34-6.8,34-6.9c0-0.1,0-0.2,0.1-0.3c0.1-0.1,0.4-0.1,0.5,0
				c0.1,0.1,0.1,0.2,0.1,0.3c0,0.1-0.1,0.2-0.1,0.3C34.6-6.6,34.5-6.6,34.4-6.6z"/>
			<path class="st1" d="M23.9-6.6c-0.1,0-0.2,0-0.3-0.1c-0.1-0.1-0.1-0.2-0.1-0.3c0-0.1,0-0.2,0.1-0.3c0.1-0.1,0.4-0.1,0.5,0
				c0.1,0.1,0.1,0.2,0.1,0.3c0,0.1,0,0.2-0.1,0.3C24.1-6.6,24-6.6,23.9-6.6z"/>
			<path class="st1" d="M14.5-6.6c-0.1,0-0.2,0-0.3-0.1c-0.1-0.1-0.1-0.2-0.1-0.3c0-0.1,0-0.2,0.1-0.3c0.1-0.1,0.4-0.1,0.5,0
				c0.1,0.1,0.1,0.2,0.1,0.3c0,0.1,0,0.2-0.1,0.3S14.6-6.6,14.5-6.6z"/>
			<path class="st1" d="M43.2-9.2c-0.1,0-0.2,0-0.3-0.1c-0.1-0.1-0.1-0.2-0.1-0.3c0-0.1,0-0.2,0.1-0.3c0.1-0.1,0.4-0.1,0.5,0
				c0.1,0.1,0.1,0.2,0.1,0.3c0,0.1,0,0.2-0.1,0.3C43.4-9.2,43.3-9.2,43.2-9.2z"/>
			<path class="st1" d="M46-0.9c-0.1,0-0.2,0-0.3-0.1c-0.1-0.1-0.1-0.2-0.1-0.3c0-0.1,0-0.2,0.1-0.3c0.1-0.1,0.4-0.1,0.5,0
				c0.1,0.1,0.1,0.2,0.1,0.3c0,0.1,0,0.2-0.1,0.3C46.2-1,46.1-0.9,46-0.9z"/>
			<path class="st1" d="M17.9-0.6c-0.1,0-0.2,0-0.3-0.1c-0.1-0.1-0.1-0.2-0.1-0.3c0-0.1,0-0.2,0.1-0.3c0.1-0.1,0.4-0.1,0.5,0
				c0.1,0.1,0.1,0.2,0.1,0.3c0,0.1,0,0.2-0.1,0.3C18.1-0.6,18-0.6,17.9-0.6z"/>
			<path class="st1" d="M31.8-1.9c-0.1,0-0.2,0-0.3-0.1c-0.1-0.1-0.1-0.2-0.1-0.3s0-0.2,0.1-0.3c0.1-0.2,0.4-0.1,0.5,0
				c0.1,0.1,0.1,0.2,0.1,0.3s0,0.2-0.1,0.3C32-1.9,31.9-1.9,31.8-1.9z"/>
			<path class="st1" d="M39.7-0.4c-0.1,0-0.2,0-0.3-0.1c-0.1-0.1-0.1-0.2-0.1-0.3s0-0.2,0.1-0.3c0.1-0.1,0.4-0.1,0.5,0
				C40-1,40-0.8,40-0.8s0,0.2-0.1,0.3C39.9-0.4,39.8-0.4,39.7-0.4z"/>
			<path class="st1" d="M50-24.2c-0.1,0-0.2,0-0.3-0.1c-0.1-0.1-0.1-0.2-0.1-0.3c0-0.1,0-0.2,0.1-0.3c0.1-0.1,0.4-0.1,0.5,0
				c0.1,0.1,0.1,0.2,0.1,0.3c0,0.1,0,0.2-0.1,0.3C50.2-24.2,50.1-24.2,50-24.2z"/>
			<path class="st1" d="M57.7-24.6c-0.1,0-0.2,0-0.3-0.1c-0.1-0.1-0.1-0.2-0.1-0.3c0-0.1,0-0.2,0.1-0.3c0.1-0.1,0.4-0.1,0.5,0
				C58-25.1,58-25,58-24.9c0,0.1-0.1,0.2-0.1,0.3C57.8-24.6,57.8-24.6,57.7-24.6z"/>
			<path class="st1" d="M62.2-24c-0.1,0-0.2,0-0.3-0.1c-0.1-0.1-0.1-0.2-0.1-0.3c0-0.1,0-0.2,0.1-0.3c0.1-0.1,0.4-0.1,0.5,0
				c0.1,0.1,0.1,0.2,0.1,0.3c0,0.1,0,0.2-0.1,0.3C62.4-24,62.3-24,62.2-24z"/>
			<path class="st1" d="M66.3-1.7c-0.1,0-0.2,0-0.3-0.1c-0.1-0.1-0.1-0.2-0.1-0.3c0-0.1,0-0.2,0.1-0.3c0.1-0.1,0.4-0.1,0.5,0
				c0.1,0.1,0.1,0.2,0.1,0.3c0,0.1,0,0.2-0.1,0.3C66.5-1.7,66.4-1.7,66.3-1.7z"/>
			<path class="st1" d="M51.7-11.4c-0.1,0-0.2,0-0.3-0.1c-0.1-0.1-0.1-0.2-0.1-0.3c0-0.1,0-0.2,0.1-0.3c0.2-0.1,0.4-0.1,0.5,0
				C52-12,52-11.9,52-11.8c0,0.1,0,0.2-0.1,0.3C51.9-11.5,51.8-11.4,51.7-11.4z"/>
			<path class="st1" d="M69.8-17.4c-0.1,0-0.2,0-0.3-0.1c-0.1-0.1-0.1-0.2-0.1-0.3c0-0.1,0-0.2,0.1-0.3c0.1-0.1,0.4-0.1,0.5,0
				c0.1,0.1,0.1,0.2,0.1,0.3c0,0.1,0,0.2-0.1,0.3C70-17.5,69.9-17.4,69.8-17.4z"/>
			<path class="st1" d="M70.4-4.3c-0.1,0-0.2,0-0.3-0.1C70.1-4.5,70-4.6,70-4.7c0-0.1,0-0.2,0.1-0.3c0.1-0.1,0.4-0.1,0.5,0
				c0.1,0.1,0.1,0.2,0.1,0.3c0,0.1,0,0.2-0.1,0.3C70.6-4.3,70.5-4.3,70.4-4.3z"/>
			<path class="st1" d="M63.3-19.5c-0.1,0-0.2,0-0.3-0.1c-0.1-0.1-0.1-0.2-0.1-0.3s0-0.2,0.1-0.3c0.1-0.1,0.4-0.1,0.5,0
				c0.1,0.1,0.1,0.2,0.1,0.3c0,0.1,0,0.2-0.1,0.3C63.5-19.5,63.4-19.5,63.3-19.5z"/>
			<path class="st1" d="M61.2-0.8c-0.1,0-0.2,0-0.3-0.1c-0.1-0.1-0.1-0.2-0.1-0.3c0-0.1,0-0.2,0.1-0.3c0.1-0.1,0.4-0.1,0.5,0
				c0.1,0.1,0.1,0.2,0.1,0.3c0,0.1,0,0.2-0.1,0.3C61.4-0.8,61.3-0.8,61.2-0.8z"/>
			<path class="st1" d="M53-19.9c-0.1,0-0.2,0-0.3-0.1c-0.1-0.1-0.1-0.2-0.1-0.3s0-0.2,0.1-0.3c0.1-0.1,0.4-0.1,0.5,0
				c0.1,0.1,0.1,0.2,0.1,0.3s0,0.2-0.1,0.3C53.2-19.9,53.1-19.9,53-19.9z"/>
			<path class="st1" d="M51.1-5.6c-0.1,0-0.2,0-0.3-0.1c-0.1-0.1-0.1-0.2-0.1-0.3s0-0.2,0.1-0.3c0.1-0.1,0.4-0.1,0.5,0
				c0.1,0.1,0.1,0.2,0.1,0.3s0,0.2-0.1,0.3C51.3-5.7,51.2-5.6,51.1-5.6z"/>
			<path class="st1" d="M56.7-17.2c-0.1,0-0.2,0-0.3-0.1c-0.1-0.1-0.1-0.2-0.1-0.3s0-0.2,0.1-0.3c0.1-0.1,0.4-0.1,0.5,0
				c0.1,0.1,0.1,0.2,0.1,0.3c0,0.1,0,0.2-0.1,0.3C56.9-17.3,56.8-17.2,56.7-17.2z"/>
			<path class="st1" d="M60.3-16.5c-0.1,0-0.2,0-0.3-0.1c-0.1-0.1-0.1-0.2-0.1-0.3c0-0.1,0-0.2,0.1-0.3c0.1-0.1,0.4-0.1,0.5,0
				c0.1,0.1,0.1,0.2,0.1,0.3c0,0.1,0,0.2-0.1,0.3C60.5-16.5,60.4-16.5,60.3-16.5z"/>
			<path class="st1" d="M55.8-3c-0.1,0-0.2,0-0.3-0.1c-0.1-0.1-0.1-0.2-0.1-0.3c0-0.1,0-0.2,0.1-0.3c0.1-0.1,0.4-0.1,0.5,0
				c0.1,0.1,0.1,0.2,0.1,0.3c0,0.1,0,0.2-0.1,0.3C56-3,55.9-3,55.8-3z"/>
			<path class="st1" d="M60.7-9.2c-0.1,0-0.2,0-0.3-0.1c-0.1-0.1-0.1-0.2-0.1-0.3c0-0.1,0-0.2,0.1-0.3c0.1-0.1,0.4-0.1,0.5,0
				C61-9.8,61-9.7,61-9.6c0,0.1,0,0.2-0.1,0.3C60.9-9.2,60.8-9.2,60.7-9.2z"/>
			<path class="st1" d="M57.3-10.9c-0.1,0-0.2,0-0.3-0.1s-0.1-0.2-0.1-0.3s0-0.2,0.1-0.3c0.1-0.1,0.4-0.1,0.5,0
				c0.1,0.1,0.1,0.2,0.1,0.3s0,0.2-0.1,0.3C57.5-10.9,57.4-10.9,57.3-10.9z"/>
			<path class="st1" d="M66.5-7.5c-0.1,0-0.2,0-0.3-0.1c-0.1-0.1-0.1-0.2-0.1-0.3c0-0.1,0-0.2,0.1-0.3c0.1-0.1,0.4-0.1,0.5,0
				c0.1,0.1,0.1,0.2,0.1,0.3c0,0.1,0,0.2-0.1,0.3C66.7-7.5,66.6-7.5,66.5-7.5z"/>
			<path class="st1" d="M68.5-12.4c-0.1,0-0.2,0-0.3-0.1c-0.1-0.1-0.1-0.2-0.1-0.3s0-0.2,0.1-0.3c0.1-0.1,0.4-0.1,0.5,0
				c0.1,0.1,0.1,0.2,0.1,0.3s0,0.2-0.1,0.3C68.7-12.4,68.6-12.4,68.5-12.4z"/>
			<path class="st1" d="M64.4-13.5c-0.1,0-0.2,0-0.3-0.1c-0.1-0.1-0.1-0.2-0.1-0.3c0-0.1,0.1-0.2,0.1-0.3c0.1-0.1,0.4-0.1,0.5,0
				c0.1,0.1,0.1,0.2,0.1,0.3c0,0.1,0,0.2-0.1,0.3C64.6-13.5,64.5-13.5,64.4-13.5z"/>
			<path class="st1" d="M1-15.8c-0.1,0-0.2,0-0.3-0.1c-0.1-0.1-0.1-0.2-0.1-0.3c0-0.1,0-0.2,0.1-0.3c0.1-0.1,0.4-0.1,0.5,0
				c0.1,0.1,0.1,0.2,0.1,0.3c0,0.1,0,0.2-0.1,0.3C1.2-15.8,1.1-15.8,1-15.8z"/>
			<path class="st1" d="M28.6-9.9c-0.1,0-0.2,0-0.3-0.1c-0.1-0.1-0.1-0.2-0.1-0.3c0-0.1,0-0.2,0.1-0.3c0.1-0.1,0.4-0.1,0.5,0
				c0.1,0.1,0.1,0.2,0.1,0.3c0,0.1,0,0.2-0.1,0.3C28.8-10,28.7-9.9,28.6-9.9z"/>
			<path class="st1" d="M14.9-21c-0.1,0-0.2,0-0.3-0.1c-0.1-0.1-0.1-0.2-0.1-0.3s0-0.2,0.1-0.3c0.1-0.1,0.4-0.1,0.5,0
				c0.1,0.1,0.1,0.2,0.1,0.3c0,0.1,0,0.2-0.1,0.3C15.1-21,15-21,14.9-21z"/>
			<path class="st1" d="M4.2-11.4c-0.1,0-0.2,0-0.3-0.1c-0.1-0.1-0.1-0.2-0.1-0.3c0-0.1,0-0.2,0.1-0.3c0.1-0.1,0.4-0.1,0.5,0
				c0.1,0.1,0.1,0.2,0.1,0.3c0,0.1,0,0.2-0.1,0.3C4.4-11.5,4.3-11.4,4.2-11.4z"/>
			<path class="st1" d="M18.1-18.2c-0.1,0-0.2,0-0.3-0.1c-0.1-0.1-0.1-0.2-0.1-0.3c0-0.1,0-0.2,0.1-0.3c0.1-0.1,0.4-0.1,0.5,0
				c0.1,0.1,0.1,0.2,0.1,0.3c0,0.1,0,0.2-0.1,0.3C18.3-18.2,18.2-18.2,18.1-18.2z"/>
			<path class="st1" d="M9.1-21.6c-0.1,0-0.2,0-0.3-0.1c-0.1-0.1-0.1-0.2-0.1-0.3c0-0.1,0-0.2,0.1-0.3c0.1-0.1,0.4-0.1,0.5,0
				c0.1,0.1,0.1,0.2,0.1,0.3c0,0.1,0,0.2-0.1,0.3C9.3-21.6,9.2-21.6,9.1-21.6z"/>
			<path class="st1" d="M17.9-24.2c-0.1,0-0.2,0-0.3-0.1c-0.1-0.1-0.1-0.2-0.1-0.3c0-0.1,0-0.2,0.1-0.3c0.1-0.1,0.4-0.1,0.5,0
				c0.1,0.1,0.1,0.2,0.1,0.3c0,0.1,0,0.2-0.1,0.3C18.1-24.2,18-24.2,17.9-24.2z"/>
			<path class="st1" d="M20.7-15.9c-0.1,0-0.2,0-0.3-0.1c-0.1-0.1-0.1-0.2-0.1-0.3c0-0.1,0-0.2,0.1-0.3c0.1-0.1,0.4-0.1,0.5,0
				c0.1,0.1,0.1,0.2,0.1,0.3c0,0.1,0,0.2-0.1,0.3C20.9-16,20.8-15.9,20.7-15.9z"/>
			<path class="st1" d="M20-12.4c-0.1,0-0.2,0-0.3-0.1c-0.1-0.1-0.1-0.2-0.1-0.3s0-0.2,0.1-0.3c0.1-0.1,0.4-0.2,0.5,0
				c0.1,0.1,0.1,0.2,0.1,0.3s0,0.2-0.1,0.3C20.2-12.4,20.1-12.4,20-12.4z"/>
			<path class="st1" d="M6.5-16.9c-0.1,0-0.2,0-0.3-0.1c-0.1-0.1-0.1-0.2-0.1-0.3s0-0.2,0.1-0.3c0.1-0.1,0.4-0.1,0.5,0
				c0.1,0.1,0.1,0.2,0.1,0.3s0,0.2-0.1,0.3C6.7-16.9,6.6-16.9,6.5-16.9z"/>
			<path class="st1" d="M12.7-12c-0.1,0-0.2,0-0.3-0.1c-0.1-0.1-0.1-0.2-0.1-0.3c0-0.1,0-0.2,0.1-0.3c0.1-0.1,0.4-0.1,0.5,0
				c0.1,0.1,0.1,0.2,0.1,0.3c0,0.1-0.1,0.2-0.1,0.3C12.9-12,12.8-12,12.7-12z"/>
			<path class="st1" d="M14.3-15.4c-0.1,0-0.2,0-0.3-0.1C14-15.6,14-15.7,14-15.8s0-0.2,0.1-0.3c0.1-0.1,0.4-0.1,0.5,0
				c0.1,0.1,0.1,0.2,0.1,0.3s0,0.2-0.1,0.3C14.5-15.4,14.4-15.4,14.3-15.4z"/>
			<path class="st1" d="M29.5-22.5c-0.1,0-0.2,0-0.3-0.1c-0.1-0.1-0.1-0.2-0.1-0.3c0-0.1,0-0.2,0.1-0.3c0.2-0.1,0.4-0.1,0.5,0
				c0.1,0.1,0.1,0.2,0.1,0.3c0,0.1,0,0.2-0.1,0.3C29.7-22.5,29.6-22.5,29.5-22.5z"/>
			<path class="st1" d="M35.3-15c-0.1,0-0.2,0-0.3-0.1C35-15.2,35-15.3,35-15.4c0-0.1,0-0.2,0.1-0.3c0.1-0.1,0.4-0.1,0.5,0
				c0.1,0.1,0.1,0.2,0.1,0.3c0,0.1,0,0.2-0.1,0.3C35.5-15,35.4-15,35.3-15z"/>
			<path class="st1" d="M41.7-12.9c-0.1,0-0.2,0-0.3-0.1c-0.1-0.1-0.1-0.2-0.1-0.3c0-0.1,0-0.2,0.1-0.3c0.1-0.1,0.4-0.1,0.5,0
				c0.1,0.1,0.1,0.2,0.1,0.3c0,0.1,0,0.2-0.1,0.3C41.9-13,41.8-12.9,41.7-12.9z"/>
			<path class="st1" d="M46-19.7c-0.1,0-0.2,0-0.3-0.1c-0.1-0.1-0.1-0.2-0.1-0.3c0-0.1,0-0.2,0.1-0.3c0.1-0.1,0.4-0.1,0.5,0
				c0.1,0.1,0.1,0.2,0.1,0.3c0,0.1,0,0.2-0.1,0.3C46.2-19.7,46.1-19.7,46-19.7z"/>
			<path class="st1" d="M46.2-13.7c-0.1,0-0.2,0-0.3-0.1c-0.1-0.1-0.1-0.2-0.1-0.3c0-0.1,0-0.2,0.1-0.3c0.1-0.1,0.4-0.1,0.5,0
				c0.1,0.1,0.1,0.2,0.1,0.3c0,0.1,0,0.2-0.1,0.3C46.4-13.7,46.3-13.7,46.2-13.7z"/>
			<path class="st1" d="M28-20.1c-0.1,0-0.2,0-0.3-0.1c-0.1-0.1-0.1-0.2-0.1-0.3c0-0.1,0-0.2,0.1-0.3c0.1-0.1,0.4-0.1,0.5,0
				c0.1,0.1,0.1,0.2,0.1,0.3c0,0.1,0,0.2-0.1,0.3C28.2-20.1,28.1-20.1,28-20.1z"/>
			<path class="st1" d="M30.1-14.8c-0.1,0-0.2,0-0.3-0.1c-0.1-0.1-0.1-0.2-0.1-0.3c0-0.1,0-0.2,0.1-0.3c0.1-0.1,0.4-0.1,0.5,0
				c0.1,0.1,0.1,0.2,0.1,0.3c0,0.1,0,0.2-0.1,0.3C30.3-14.8,30.2-14.8,30.1-14.8z"/>
			<path class="st1" d="M25.4-16.7c-0.1,0-0.2,0-0.3-0.1C25.1-16.9,25-17,25-17.1c0-0.1,0-0.2,0.1-0.3c0.2-0.1,0.4-0.1,0.5,0
				c0.1,0.1,0.1,0.2,0.1,0.3c0,0.1-0.1,0.2-0.1,0.3C25.6-16.7,25.5-16.7,25.4-16.7z"/>
			<path class="st1" d="M38.5-17.1c-0.1,0-0.2,0-0.3-0.1c-0.1-0.1-0.1-0.2-0.1-0.3c0-0.1,0-0.2,0.1-0.3c0.1-0.1,0.4-0.1,0.5,0
				c0.1,0.1,0.1,0.2,0.1,0.3c0,0.1,0,0.2-0.1,0.3C38.7-17.1,38.6-17.1,38.5-17.1z"/>
			<path class="st1" d="M42.3-22.9c-0.1,0-0.2,0-0.3-0.1s-0.1-0.2-0.1-0.3s0-0.2,0.1-0.3c0.1-0.1,0.4-0.1,0.5,0
				c0.1,0.1,0.1,0.2,0.1,0.3s0,0.2-0.1,0.3C42.5-22.9,42.4-22.9,42.3-22.9z"/>
			<path class="st1" d="M43.4-17.1c-0.1,0-0.2,0-0.3-0.1c-0.1-0.1-0.1-0.2-0.1-0.3c0-0.1,0-0.2,0.1-0.3c0.1-0.1,0.4-0.1,0.5,0
				c0.1,0.1,0.1,0.2,0.1,0.3c0,0.1,0,0.2-0.1,0.3C43.6-17.1,43.5-17.1,43.4-17.1z"/>
			<path class="st1" d="M25.8-24.8c-0.1,0-0.2,0-0.3-0.1c-0.1-0.1-0.1-0.2-0.1-0.3c0-0.1,0-0.2,0.1-0.3c0.1-0.1,0.4-0.1,0.5,0
				c0.1,0.1,0.1,0.2,0.1,0.3c0,0.1,0,0.2-0.1,0.3C26-24.8,25.9-24.8,25.8-24.8z"/>
			<path class="st1" d="M48.7-20.2c-0.1,0-0.2,0-0.3-0.1c-0.1-0.1-0.1-0.2-0.1-0.3c0-0.1,0.1-0.2,0.1-0.3c0.1-0.1,0.4-0.1,0.5,0
				c0.1,0.1,0.1,0.2,0.1,0.3c0,0.1-0.1,0.2-0.1,0.3C48.9-20.3,48.8-20.2,48.7-20.2z"/>
			<path class="st1" d="M35-24.2c-0.1,0-0.2,0-0.3-0.1c-0.1-0.1-0.1-0.2-0.1-0.3c0-0.1,0-0.2,0.1-0.3c0.1-0.1,0.4-0.1,0.5,0
				c0.1,0.1,0.1,0.2,0.1,0.3c0,0.1,0,0.2-0.1,0.3C35.2-24.2,35.1-24.2,35-24.2z"/>
			<path class="st1" d="M35.3-20.2c-0.1,0-0.2,0-0.3-0.1C35-20.4,35-20.5,35-20.6c0-0.1,0-0.2,0.1-0.3c0.1-0.1,0.4-0.1,0.5,0
				c0.1,0.1,0.1,0.2,0.1,0.3c0,0.1,0,0.2-0.1,0.3C35.5-20.3,35.4-20.2,35.3-20.2z"/>
			<path class="st1" d="M2.2-23.6c-0.1,0-0.2,0-0.3-0.1c-0.1-0.1-0.1-0.2-0.1-0.3s0.1-0.2,0.1-0.3c0.1-0.1,0.4-0.1,0.5,0
				c0.1,0.1,0.1,0.2,0.1,0.3s0,0.2-0.1,0.3C2.4-23.7,2.3-23.6,2.2-23.6z"/>
			<path class="st1" d="M4.6-24.6c-0.1,0-0.2,0-0.3-0.1c-0.1-0.1-0.1-0.2-0.1-0.3c0-0.1,0-0.2,0.1-0.3c0.1-0.1,0.4-0.1,0.5,0
				C4.9-25.1,5-25,5-24.9c0,0.1,0,0.2-0.1,0.3C4.8-24.6,4.7-24.6,4.6-24.6z"/>
			<path class="st1" d="M2.7-70.5c-0.1,0-0.2,0-0.3-0.1c-0.1-0.1-0.1-0.2-0.1-0.3s0-0.2,0.1-0.3c0.1-0.1,0.4-0.1,0.5,0
				c0.1,0.1,0.1,0.2,0.1,0.3s0,0.2-0.1,0.3C2.9-70.5,2.8-70.5,2.7-70.5z"/>
			<path class="st1" d="M9.5-66.2c-0.1,0-0.2,0-0.3-0.1c-0.1-0.1-0.1-0.2-0.1-0.3c0-0.1,0-0.2,0.1-0.3c0.1-0.1,0.4-0.1,0.5,0
				c0.1,0.1,0.1,0.2,0.1,0.3c0,0.1,0,0.2-0.1,0.3C9.7-66.2,9.6-66.2,9.5-66.2z"/>
			<path class="st1" d="M3.5-66c-0.1,0-0.2,0-0.3-0.1c-0.1-0.1-0.1-0.2-0.1-0.3c0-0.1,0-0.2,0.1-0.3c0.1-0.1,0.4-0.1,0.5,0
				c0.1,0.1,0.1,0.2,0.1,0.3c0,0.1,0,0.2-0.1,0.3C3.7-66,3.6-66,3.5-66z"/>
			<path class="st1" d="M21.8-68.6c-0.1,0-0.2,0-0.3-0.1c-0.1-0.1-0.1-0.2-0.1-0.3s0-0.2,0.1-0.3c0.1-0.1,0.4-0.1,0.5,0
				c0.1,0.1,0.1,0.2,0.1,0.3s0,0.2-0.1,0.3C22-68.7,21.9-68.6,21.8-68.6z"/>
			<path class="st1" d="M30.5-71.2c-0.1,0-0.2,0-0.3-0.1c-0.1-0.1-0.1-0.2-0.1-0.3c0-0.1,0-0.2,0.1-0.3c0.1-0.1,0.4-0.1,0.5,0
				c0.1,0.1,0.1,0.2,0.1,0.3c0,0.1,0,0.2-0.1,0.3C30.7-71.3,30.6-71.2,30.5-71.2z"/>
			<path class="st1" d="M46.2-67.7c-0.1,0-0.2,0-0.3-0.1c-0.1-0.1-0.1-0.2-0.1-0.3c0-0.1,0-0.2,0.1-0.3c0.1-0.1,0.4-0.1,0.5,0
				c0.1,0.1,0.1,0.2,0.1,0.3c0,0.1,0,0.2-0.1,0.3C46.4-67.7,46.3-67.7,46.2-67.7z"/>
			<path class="st1" d="M33.1-67.1c-0.1,0-0.2,0-0.3-0.1c-0.1-0.1-0.1-0.2-0.1-0.3s0-0.2,0.1-0.3c0.1-0.1,0.4-0.1,0.5,0
				c0.1,0.1,0.1,0.2,0.1,0.3s0,0.2-0.1,0.3C33.3-67.2,33.2-67.1,33.1-67.1z"/>
			<path class="st1" d="M22.2-65.2c-0.1,0-0.2,0-0.3-0.1c-0.1-0.1-0.1-0.2-0.1-0.3c0-0.1,0-0.2,0.1-0.3c0.1-0.1,0.4-0.1,0.5,0
				c0.1,0.1,0.1,0.2,0.1,0.3c0,0.1,0,0.2-0.1,0.3C22.4-65.3,22.3-65.2,22.2-65.2z"/>
			<path class="st1" d="M12.7-69.9c-0.1,0-0.2,0-0.3-0.1c-0.1-0.1-0.1-0.2-0.1-0.3c0-0.1,0-0.2,0.1-0.3c0.1-0.1,0.4-0.1,0.5,0
				c0.1,0.1,0.1,0.2,0.1,0.3c0,0.1,0,0.2-0.1,0.3C12.9-70,12.8-69.9,12.7-69.9z"/>
			<path class="st1" d="M15.3-67.1c-0.1,0-0.2,0-0.3-0.1c-0.1-0.1-0.1-0.2-0.1-0.3s0-0.2,0.1-0.3c0.1-0.1,0.4-0.1,0.5,0
				c0.1,0.1,0.1,0.2,0.1,0.3s0,0.2-0.1,0.3C15.5-67.2,15.4-67.1,15.3-67.1z"/>
			<path class="st1" d="M40.6-65.1c-0.1,0-0.2,0-0.3-0.1c-0.1-0.1-0.1-0.2-0.1-0.3c0-0.1,0-0.2,0.1-0.3c0.1-0.1,0.4-0.1,0.5,0
				c0.1,0.1,0.1,0.2,0.1,0.3c0,0.1,0,0.2-0.1,0.3C40.8-65.1,40.7-65.1,40.6-65.1z"/>
			<path class="st1" d="M6.8-68.8c-0.1,0-0.2,0-0.3-0.1c-0.1-0.1-0.1-0.2-0.1-0.3c0-0.1,0-0.2,0.1-0.3c0.1-0.1,0.4-0.1,0.5,0
				c0.1,0.1,0.1,0.2,0.1,0.3c0,0.1,0,0.2-0.1,0.3C7-68.8,6.9-68.8,6.8-68.8z"/>
			<path class="st1" d="M29-64.9c-0.1,0-0.2,0-0.3-0.1c-0.1-0.1-0.1-0.2-0.1-0.3s0-0.2,0.1-0.3c0.1-0.1,0.4-0.1,0.5,0
				c0.1,0.1,0.1,0.2,0.1,0.3s0,0.2-0.1,0.3C29.2-64.9,29.1-64.9,29-64.9z"/>
			<path class="st1" d="M10-63.6c-0.1,0-0.2,0-0.3-0.1c-0.1-0.1-0.1-0.2-0.1-0.3c0-0.1,0-0.2,0.1-0.3c0.1-0.1,0.4-0.1,0.5,0
				c0.1,0.1,0.1,0.2,0.1,0.3c0,0.1,0,0.2-0.1,0.3C10.2-63.6,10.1-63.6,10-63.6z"/>
			<path class="st1" d="M33.8-63.4c-0.1,0-0.2,0-0.3-0.1c-0.1-0.1-0.1-0.2-0.1-0.3s0-0.2,0.1-0.3c0.1-0.1,0.4-0.1,0.5,0
				c0.1,0.1,0.1,0.2,0.1,0.3s0,0.2-0.1,0.3C34-63.4,33.9-63.4,33.8-63.4z"/>
			<path class="st1" d="M16-71.6c-0.1,0-0.2,0-0.3-0.1c-0.1-0.1-0.1-0.2-0.1-0.3s0-0.2,0.1-0.3c0.1-0.1,0.4-0.1,0.5,0
				c0.1,0.1,0.1,0.2,0.1,0.3s0,0.2-0.1,0.3C16.2-71.7,16.1-71.6,16-71.6z"/>
			<path class="st1" d="M36.3-71.1c-0.1,0-0.2,0-0.3-0.1s-0.1-0.2-0.1-0.3c0-0.1,0-0.2,0.1-0.3c0.1-0.1,0.4-0.1,0.5,0
				c0.1,0.1,0.1,0.2,0.1,0.3c0,0.1,0,0.2-0.1,0.3C36.5-71.1,36.4-71.1,36.3-71.1z"/>
			<path class="st1" d="M41.2-69c-0.1,0-0.2,0-0.3-0.1c-0.1-0.1-0.1-0.2-0.1-0.3c0-0.1,0-0.2,0.1-0.3c0.2-0.1,0.4-0.1,0.5,0
				c0.1,0.1,0.1,0.2,0.1,0.3c0,0.1,0,0.2-0.1,0.3C41.4-69,41.3-69,41.2-69z"/>
			<path class="st1" d="M44.3-63.9c-0.1,0-0.2,0-0.3-0.1C44-64.1,44-64.2,44-64.3c0-0.1,0-0.2,0.1-0.3c0.1-0.1,0.4-0.1,0.5,0
				c0.1,0.1,0.1,0.2,0.1,0.3c0,0.1,0,0.2-0.1,0.3C44.5-64,44.4-63.9,44.3-63.9z"/>
			<path class="st1" d="M12.3-47.8c-0.1,0-0.2,0-0.3-0.1c-0.1-0.1-0.1-0.2-0.1-0.3c0-0.1,0-0.2,0.1-0.3c0.1-0.1,0.4-0.1,0.5,0
				c0.1,0.1,0.1,0.2,0.1,0.3c0,0.1,0,0.2-0.1,0.3C12.5-47.8,12.4-47.8,12.3-47.8z"/>
			<path class="st1" d="M0.5-48c-0.1,0-0.2,0-0.3-0.1c-0.1-0.1-0.1-0.2-0.1-0.3c0-0.1,0-0.2,0.1-0.3c0.1-0.1,0.4-0.1,0.5,0
				c0.1,0.1,0.1,0.2,0.1,0.3c0,0.1,0,0.2-0.1,0.3C0.7-48,0.6-48,0.5-48z"/>
			<path class="st1" d="M4.8-42c-0.1,0-0.2,0-0.3-0.1c-0.1-0.1-0.1-0.2-0.1-0.3c0-0.1,0-0.2,0.1-0.3c0.1-0.1,0.4-0.1,0.5,0
				c0.1,0.1,0.1,0.2,0.1,0.3c0,0.1,0,0.2-0.1,0.3C5-42,4.9-42,4.8-42z"/>
			<path class="st1" d="M2.7-35.6c-0.1,0-0.2,0-0.3-0.1c-0.1-0.1-0.1-0.2-0.1-0.3s0-0.2,0.1-0.3c0.1-0.1,0.4-0.1,0.5,0
				c0.1,0.1,0.1,0.2,0.1,0.3s0,0.2-0.1,0.3C2.9-35.7,2.8-35.6,2.7-35.6z"/>
			<path class="st1" d="M9.5-31.3c-0.1,0-0.2,0-0.3-0.1c-0.1-0.1-0.1-0.2-0.1-0.3c0-0.1,0-0.2,0.1-0.3c0.1-0.1,0.4-0.1,0.5,0
				c0.1,0.1,0.1,0.2,0.1,0.3c0,0.1,0,0.2-0.1,0.3C9.7-31.3,9.6-31.3,9.5-31.3z"/>
			<path class="st1" d="M3.5-31.1c-0.1,0-0.2,0-0.3-0.1c-0.1-0.1-0.1-0.2-0.1-0.3s0-0.2,0.1-0.3c0.1-0.1,0.4-0.1,0.5,0
				c0.1,0.1,0.1,0.2,0.1,0.3s0,0.2-0.1,0.3C3.7-31.2,3.6-31.1,3.5-31.1z"/>
			<path class="st1" d="M9.8-49.3c-0.1,0-0.2,0-0.3-0.1c-0.1-0.1-0.1-0.2-0.1-0.3c0-0.1,0-0.2,0.1-0.3c0.1-0.1,0.4-0.1,0.5,0
				c0.1,0.1,0.1,0.2,0.1,0.3c0,0.1,0,0.2-0.1,0.3C10-49.3,9.9-49.3,9.8-49.3z"/>
			<path class="st1" d="M19-50.4c-0.1,0-0.2,0-0.3-0.1c-0.1-0.1-0.1-0.2-0.1-0.3c0-0.1,0-0.2,0.1-0.3c0.2-0.1,0.4-0.1,0.5,0
				c0.1,0.1,0.1,0.2,0.1,0.3c0,0.1,0,0.2-0.1,0.3C19.2-50.5,19.1-50.4,19-50.4z"/>
			<path class="st1" d="M3.1-45.6c-0.1,0-0.2,0-0.3-0.1c-0.1-0.1-0.1-0.2-0.1-0.3c0-0.1,0-0.2,0.1-0.3c0.1-0.1,0.4-0.1,0.5,0
				c0.1,0.1,0.1,0.2,0.1,0.3c0,0.1,0,0.2-0.1,0.3C3.3-45.6,3.2-45.6,3.1-45.6z"/>
			<path class="st1" d="M6.5-51.9c-0.1,0-0.2,0-0.3-0.1c-0.1-0.1-0.1-0.2-0.1-0.3c0-0.1,0-0.2,0.1-0.3c0.1-0.1,0.4-0.1,0.5,0
				c0.1,0.1,0.1,0.2,0.1,0.3c0,0.1,0,0.2-0.1,0.3C6.7-52,6.6-51.9,6.5-51.9z"/>
			<path class="st1" d="M23.9-47.1c-0.1,0-0.2,0-0.3-0.1c-0.1-0.1-0.1-0.2-0.1-0.3c0-0.1,0-0.2,0.1-0.3c0.1-0.1,0.4-0.1,0.5,0
				c0.1,0.1,0.1,0.2,0.1,0.3c0,0.1-0.1,0.2-0.1,0.3C24.1-47.1,24-47.1,23.9-47.1z"/>
			<path class="st1" d="M26.3-45.8c-0.1,0-0.2,0-0.3-0.1C26-45.9,26-46,26-46.1c0-0.1,0-0.2,0.1-0.3c0.1-0.1,0.4-0.1,0.5,0
				c0.1,0.1,0.1,0.2,0.1,0.3c0,0.1,0,0.2-0.1,0.3C26.5-45.8,26.4-45.8,26.3-45.8z"/>
			<path class="st1" d="M6.8-38.8c-0.1,0-0.2,0-0.3-0.1c-0.1-0.1-0.1-0.2-0.1-0.3c0-0.1,0-0.2,0.1-0.3c0.1-0.1,0.4-0.1,0.5,0
				c0.1,0.1,0.1,0.2,0.1,0.3c0,0.1,0,0.2-0.1,0.3C7-38.8,6.9-38.8,6.8-38.8z"/>
			<path class="st1" d="M21.8-33.8c-0.1,0-0.2,0-0.3-0.1c-0.1-0.1-0.1-0.2-0.1-0.3c0-0.1,0-0.2,0.1-0.3c0.1-0.1,0.4-0.1,0.5,0
				c0.1,0.1,0.1,0.2,0.1,0.3c0,0.1,0,0.2-0.1,0.3C22-33.8,21.9-33.8,21.8-33.8z"/>
			<path class="st1" d="M30.5-36.4c-0.1,0-0.2,0-0.3-0.1c-0.1-0.1-0.1-0.2-0.1-0.3s0-0.2,0.1-0.3c0.1-0.2,0.4-0.1,0.5,0
				c0.1,0.1,0.1,0.2,0.1,0.3s0,0.2-0.1,0.3C30.7-36.4,30.6-36.4,30.5-36.4z"/>
			<path class="st1" d="M28.4-50.1c-0.1,0-0.2,0-0.3-0.1c-0.1-0.1-0.1-0.2-0.1-0.3c0-0.1,0-0.2,0.1-0.3c0.1-0.1,0.4-0.1,0.5,0
				c0.1,0.1,0.1,0.2,0.1,0.3c0,0.1,0,0.2-0.1,0.3C28.6-50.1,28.5-50.1,28.4-50.1z"/>
			<path class="st1" d="M40.2-51c-0.1,0-0.2,0-0.3-0.1c-0.1-0.1-0.1-0.2-0.1-0.3c0-0.1,0-0.2,0.1-0.3c0.1-0.1,0.4-0.1,0.5,0
				c0.1,0.1,0.1,0.2,0.1,0.3c0,0.1,0,0.2-0.1,0.3C40.4-51,40.3-51,40.2-51z"/>
			<path class="st1" d="M26.2-39c-0.1,0-0.2,0-0.3-0.1c-0.1,0-0.1-0.1-0.1-0.3c0-0.1,0-0.2,0.1-0.3c0.1-0.1,0.4-0.1,0.5,0
				c0.1,0.1,0.1,0.2,0.1,0.3c0,0.1-0.1,0.2-0.1,0.3C26.4-39,26.3-39,26.2-39z"/>
			<path class="st1" d="M46.2-32.8c-0.1,0-0.2,0-0.3-0.1c-0.1-0.1-0.1-0.2-0.1-0.3c0-0.1,0-0.2,0.1-0.3c0.1-0.1,0.4-0.1,0.5,0
				c0.1,0.1,0.1,0.2,0.1,0.3c0,0.1,0,0.2-0.1,0.3C46.4-32.8,46.3-32.8,46.2-32.8z"/>
			<path class="st1" d="M33.1-32.2c-0.1,0-0.2,0-0.3-0.1c-0.1-0.1-0.1-0.2-0.1-0.3c0-0.1,0-0.2,0.1-0.3c0.1-0.1,0.4-0.1,0.5,0
				c0.1,0.1,0.1,0.2,0.1,0.3c0,0.1,0,0.2-0.1,0.3C33.3-32.3,33.2-32.2,33.1-32.2z"/>
			<path class="st1" d="M22.2-30.4c-0.1,0-0.2,0-0.3-0.1c-0.1-0.1-0.1-0.2-0.1-0.3s0-0.2,0.1-0.3c0.1-0.1,0.4-0.1,0.5,0
				c0.1,0.1,0.1,0.2,0.1,0.3s0,0.2-0.1,0.3C22.4-30.4,22.3-30.4,22.2-30.4z"/>
			<path class="st1" d="M12.7-35.1c-0.1,0-0.2,0-0.3-0.1c-0.1-0.1-0.1-0.2-0.1-0.3c0-0.1,0-0.2,0.1-0.3c0.1-0.1,0.4-0.1,0.5,0
				c0.1,0.1,0.1,0.2,0.1,0.3c0,0.1-0.1,0.2-0.1,0.3C12.9-35.1,12.8-35.1,12.7-35.1z"/>
			<path class="st1" d="M15.3-32.2c-0.1,0-0.2,0-0.3-0.1c-0.1-0.1-0.1-0.2-0.1-0.3c0-0.1,0-0.2,0.1-0.3c0.1-0.1,0.4-0.1,0.5,0
				c0.1,0.1,0.1,0.2,0.1,0.3c0,0.1,0,0.2-0.1,0.3C15.5-32.3,15.4-32.2,15.3-32.2z"/>
			<path class="st1" d="M38.1-29.8c-0.1,0-0.2,0-0.3-0.1c-0.1-0.1-0.1-0.2-0.1-0.3c0-0.1,0-0.2,0.1-0.3c0.1-0.1,0.4-0.1,0.5,0
				c0.1,0.1,0.1,0.2,0.1,0.3c0,0.1,0,0.2-0.1,0.3C38.3-29.8,38.2-29.8,38.1-29.8z"/>
			<path class="st1" d="M48.3-39.4c-0.1,0-0.2,0-0.3-0.1c-0.1-0.1-0.1-0.2-0.1-0.3s0-0.2,0.1-0.3c0.1-0.1,0.4-0.1,0.5,0
				c0.1,0.1,0.1,0.2,0.1,0.3s0,0.2-0.1,0.3C48.5-39.4,48.4-39.4,48.3-39.4z"/>
			<path class="st1" d="M29.5-41.4c-0.1,0-0.2,0-0.3-0.1c-0.1-0.1-0.1-0.2-0.1-0.3c0-0.1,0-0.2,0.1-0.3c0.2-0.1,0.4-0.1,0.5,0
				c0.1,0.1,0.1,0.2,0.1,0.3c0,0.1,0,0.2-0.1,0.3C29.7-41.5,29.6-41.4,29.5-41.4z"/>
			<path class="st1" d="M48.7-49.7c-0.1,0-0.2,0-0.3-0.1c-0.1-0.1-0.1-0.2-0.1-0.3c0-0.1,0.1-0.2,0.1-0.3c0.1-0.1,0.4-0.1,0.5,0
				c0.1,0.1,0.1,0.2,0.1,0.3c0,0.1-0.1,0.2-0.1,0.3C48.8-49.7,48.8-49.7,48.7-49.7z"/>
			<path class="st1" d="M34.4-51.6c-0.1,0-0.2,0-0.3-0.1c-0.1-0.1-0.1-0.2-0.1-0.3c0-0.1,0-0.2,0.1-0.3c0.1-0.1,0.4-0.1,0.5,0
				c0.1,0.1,0.1,0.2,0.1,0.3c0,0.1-0.1,0.2-0.1,0.3C34.6-51.6,34.5-51.6,34.4-51.6z"/>
			<path class="st1" d="M6.8-33.9c-0.1,0-0.2,0-0.3-0.1c-0.1-0.1-0.1-0.2-0.1-0.3c0-0.1,0-0.2,0.1-0.3c0.1-0.1,0.4-0.1,0.5,0
				c0.1,0.1,0.1,0.2,0.1,0.3c0,0.1,0,0.2-0.1,0.3C7-34,6.9-33.9,6.8-33.9z"/>
			<path class="st1" d="M23.9-51.6c-0.1,0-0.2,0-0.3-0.1c-0.1-0.1-0.1-0.2-0.1-0.3c0-0.1,0-0.2,0.1-0.3c0.1-0.1,0.4-0.1,0.5,0
				c0.1,0.1,0.1,0.2,0.1,0.3c0,0.1,0,0.2-0.1,0.3C24.1-51.6,24-51.6,23.9-51.6z"/>
			<path class="st1" d="M14.5-51.6c-0.1,0-0.2,0-0.3-0.1c-0.1-0.1-0.1-0.2-0.1-0.3c0-0.1,0-0.2,0.1-0.3c0.1-0.1,0.4-0.1,0.5,0
				c0.1,0.1,0.1,0.2,0.1,0.3c0,0.1,0,0.2-0.1,0.3C14.7-51.6,14.6-51.6,14.5-51.6z"/>
			<path class="st1" d="M29-30c-0.1,0-0.2,0-0.3-0.1c-0.1-0.1-0.1-0.2-0.1-0.3c0-0.1,0-0.2,0.1-0.3c0.1-0.1,0.4-0.1,0.5,0
				c0.1,0.1,0.1,0.2,0.1,0.3c0,0.1,0,0.2-0.1,0.3C29.2-30,29.1-30,29-30z"/>
			<path class="st1" d="M10-28.7c-0.1,0-0.2,0-0.3-0.1c-0.1-0.1-0.1-0.2-0.1-0.3c0-0.1,0-0.2,0.1-0.3c0.1-0.1,0.4-0.1,0.5,0
				c0.1,0.1,0.1,0.2,0.1,0.3c0,0.1,0,0.2-0.1,0.3C10.2-28.7,10.1-28.7,10-28.7z"/>
			<path class="st1" d="M43.2-54.2c-0.1,0-0.2,0-0.3-0.1c-0.1-0.1-0.1-0.2-0.1-0.3c0-0.1,0-0.2,0.1-0.3c0.1-0.1,0.4-0.1,0.5,0
				c0.1,0.1,0.1,0.2,0.1,0.3c0,0.1,0,0.2-0.1,0.3C43.4-54.2,43.3-54.2,43.2-54.2z"/>
			<path class="st1" d="M33.8-28.5c-0.1,0-0.2,0-0.3-0.1c-0.1-0.1-0.1-0.2-0.1-0.3c0-0.1,0-0.2,0.1-0.3c0.1-0.1,0.4-0.1,0.5,0
				c0.1,0.1,0.1,0.2,0.1,0.3c0,0.1,0,0.2-0.1,0.3C34-28.5,33.9-28.5,33.8-28.5z"/>
			<path class="st1" d="M44.1-47.3c-0.1,0-0.2,0-0.3-0.1c-0.1-0.1-0.1-0.2-0.1-0.3c0-0.1,0-0.2,0.1-0.3c0.1-0.1,0.4-0.1,0.5,0
				c0.1,0.1,0.1,0.2,0.1,0.3c0,0.1,0,0.2-0.1,0.3C44.3-47.3,44.2-47.3,44.1-47.3z"/>
			<path class="st1" d="M14-42.4c-0.1,0-0.2,0-0.3-0.1c-0.1-0.1-0.1-0.2-0.1-0.3s0-0.2,0.1-0.3c0.1-0.1,0.4-0.1,0.5,0
				c0.1,0.1,0.1,0.2,0.1,0.3s0,0.2-0.1,0.3C14.2-42.4,14.1-42.4,14-42.4z"/>
			<path class="st1" d="M10-42c-0.1,0-0.2,0-0.3-0.1c-0.1-0.1-0.1-0.2-0.1-0.3c0-0.1,0-0.2,0.1-0.3c0.1-0.1,0.4-0.1,0.5,0
				c0.1,0.1,0.1,0.2,0.1,0.3c0,0.1,0,0.2-0.1,0.3C10.2-42,10.1-42,10-42z"/>
			<path class="st1" d="M20.2-39.8c-0.1,0-0.2,0-0.3-0.1c-0.1-0.1-0.1-0.2-0.1-0.3c0-0.1,0-0.2,0.1-0.3c0.1-0.1,0.4-0.1,0.5,0
				c0.1,0.1,0.1,0.2,0.1,0.3c0,0.1-0.1,0.2-0.1,0.3C20.3-39.8,20.3-39.8,20.2-39.8z"/>
			<path class="st1" d="M21.1-43.1c-0.1,0-0.2,0-0.3-0.1c-0.1-0.1-0.1-0.2-0.1-0.3s0-0.2,0.1-0.3c0.1-0.1,0.4-0.1,0.5,0
				c0.1,0.1,0.1,0.2,0.1,0.3s0,0.2-0.1,0.3C21.3-43.2,21.2-43.1,21.1-43.1z"/>
			<path class="st1" d="M17.9-45.6c-0.1,0-0.2,0-0.3-0.1c-0.1-0.1-0.1-0.2-0.1-0.3c0-0.1,0-0.2,0.1-0.3c0.1-0.1,0.4-0.1,0.5,0
				c0.1,0.1,0.1,0.2,0.1,0.3c0,0.1,0,0.2-0.1,0.3C18.1-45.6,18-45.6,17.9-45.6z"/>
			<path class="st1" d="M16-36.8c-0.1,0-0.2,0-0.3-0.1c-0.1-0.1-0.1-0.2-0.1-0.3c0-0.1,0-0.2,0.1-0.3c0.1-0.1,0.4-0.1,0.5,0
				c0.1,0.1,0.1,0.2,0.1,0.3c0,0.1,0,0.2-0.1,0.3C16.2-36.8,16.1-36.8,16-36.8z"/>
			<path class="st1" d="M45.3-42.4c-0.1,0-0.2,0-0.3-0.1c-0.1-0.1-0.1-0.2-0.1-0.3s0-0.2,0.1-0.3c0.1-0.1,0.4-0.1,0.5,0
				c0.1,0.1,0.1,0.2,0.1,0.3s0,0.2-0.1,0.3C45.5-42.4,45.4-42.4,45.3-42.4z"/>
			<path class="st1" d="M31.8-46.9c-0.1,0-0.2,0-0.3-0.1c-0.1-0.1-0.1-0.2-0.1-0.3s0-0.2,0.1-0.3c0.1-0.1,0.4-0.1,0.5,0
				c0.1,0.1,0.1,0.2,0.1,0.3s0,0.2-0.1,0.3C32-46.9,31.9-46.9,31.8-46.9z"/>
			<path class="st1" d="M38-42c-0.1,0-0.2,0-0.3-0.1c-0.1-0.1-0.1-0.2-0.1-0.3c0-0.1,0-0.2,0.1-0.3c0.1-0.1,0.4-0.1,0.5,0
				c0.1,0.1,0.1,0.2,0.1,0.3c0,0.1,0,0.2-0.1,0.3C38.2-42,38.1-42,38-42z"/>
			<path class="st1" d="M39.7-45.4c-0.1,0-0.2,0-0.3-0.1c-0.1-0.1-0.1-0.2-0.1-0.3s0-0.2,0.1-0.3c0.1-0.1,0.4-0.1,0.5,0
				C40-46,40-45.8,40-45.8s0,0.2-0.1,0.3C39.8-45.4,39.8-45.4,39.7-45.4z"/>
			<path class="st1" d="M36.3-36.2c-0.1,0-0.2,0-0.3-0.1c-0.1-0.1-0.1-0.2-0.1-0.3c0-0.1,0-0.2,0.1-0.3c0.1-0.1,0.4-0.1,0.5,0
				c0.1,0.1,0.1,0.2,0.1,0.3c0,0.1,0,0.2-0.1,0.3C36.5-36.2,36.4-36.2,36.3-36.2z"/>
			<path class="st1" d="M41.2-34.1c-0.1,0-0.2,0-0.3-0.1c-0.1-0.1-0.1-0.2-0.1-0.3s0-0.2,0.1-0.3c0.1-0.1,0.4-0.1,0.5,0
				c0.1,0.1,0.1,0.2,0.1,0.3s0,0.2-0.1,0.3C41.3-34.2,41.3-34.1,41.2-34.1z"/>
			<path class="st1" d="M42.3-38.2c-0.1,0-0.2,0-0.3-0.1c-0.1-0.1-0.1-0.2-0.1-0.3c0-0.1,0-0.2,0.1-0.3c0.1-0.1,0.4-0.1,0.5,0
				c0.1,0.1,0.1,0.2,0.1,0.3c0,0.1,0,0.2-0.1,0.3C42.5-38.3,42.4-38.2,42.3-38.2z"/>
			<path class="st1" d="M44.3-29.1c-0.1,0-0.2,0-0.3-0.1C44-29.2,44-29.3,44-29.4c0-0.1,0-0.2,0.1-0.3c0.1-0.1,0.4-0.1,0.5,0
				c0.1,0.1,0.1,0.2,0.1,0.3c0,0.1,0,0.2-0.1,0.3C44.5-29.1,44.4-29.1,44.3-29.1z"/>
			<path class="st1" d="M49.2-29.2c-0.1,0-0.2,0-0.3-0.1c-0.1-0.1-0.1-0.2-0.1-0.3c0-0.1,0-0.2,0.1-0.3c0.1-0.1,0.4-0.1,0.5,0
				c0.1,0.1,0.1,0.2,0.1,0.3c0,0.1,0,0.2-0.1,0.3C49.4-29.3,49.3-29.2,49.2-29.2z"/>
			<path class="st1" d="M53.9-27.4c-0.1,0-0.2,0-0.3-0.1c-0.1-0.1-0.1-0.2-0.1-0.3s0-0.2,0.1-0.3c0.1-0.1,0.4-0.1,0.5,0
				c0.1,0.1,0.1,0.2,0.1,0.3s-0.1,0.2-0.1,0.3C54.1-27.4,54-27.4,53.9-27.4z"/>
			<path class="st1" d="M54.8-52.5c-0.1,0-0.2,0-0.3-0.1c-0.1-0.1-0.1-0.2-0.1-0.3c0-0.1,0-0.2,0.1-0.3c0.1-0.1,0.4-0.1,0.5,0
				c0.1,0.1,0.1,0.2,0.1,0.3c0,0.1,0,0.2-0.1,0.3C55-52.5,54.9-52.5,54.8-52.5z"/>
			<path class="st1" d="M53.2-33.9c-0.1,0-0.2,0-0.3-0.1c-0.1-0.1-0.1-0.2-0.1-0.3c0-0.1,0-0.2,0.1-0.3c0.1-0.1,0.4-0.1,0.5,0
				c0.1,0.1,0.1,0.2,0.1,0.3c0,0.1-0.1,0.2-0.1,0.3C53.3-34,53.3-33.9,53.2-33.9z"/>
			<path class="st1" d="M59.7-27c-0.1,0-0.2,0-0.3-0.1c-0.1-0.1-0.1-0.2-0.1-0.3c0-0.1,0-0.2,0.1-0.3c0.1-0.1,0.4-0.1,0.5,0
				c0.1,0.1,0.1,0.2,0.1,0.3c0,0.1,0,0.2-0.1,0.3C59.9-27,59.8-27,59.7-27z"/>
			<path class="st1" d="M54.7-40.7c-0.1,0-0.2,0-0.3-0.1c-0.1-0.1-0.1-0.2-0.1-0.3c0-0.1,0-0.2,0.1-0.3c0.1-0.1,0.4-0.1,0.5,0
				c0.1,0.1,0.1,0.2,0.1,0.3c0,0.1,0,0.2-0.1,0.3C54.8-40.7,54.8-40.7,54.7-40.7z"/>
			<path class="st1" d="M60.7-45c-0.1,0-0.2,0-0.3-0.1c-0.1-0.1-0.1-0.2-0.1-0.3c0-0.1,0-0.2,0.1-0.3c0.1-0.1,0.4-0.1,0.5,0
				c0.1,0.1,0.1,0.2,0.1,0.3c0,0.1,0,0.2-0.1,0.3C60.8-45,60.8-45,60.7-45z"/>
			<path class="st1" d="M65.3-28.3c-0.1,0-0.2,0-0.3-0.1C65-28.5,65-28.6,65-28.7c0-0.1,0-0.2,0.1-0.3c0.1-0.1,0.4-0.1,0.5,0
				c0.1,0.1,0.1,0.2,0.1,0.3c0,0.1,0,0.2-0.1,0.3C65.5-28.3,65.4-28.3,65.3-28.3z"/>
			<path class="st1" d="M71.5-27.2c-0.1,0-0.2,0-0.3-0.1c-0.1-0.1-0.1-0.2-0.1-0.3c0-0.1,0-0.2,0.1-0.3c0.1-0.1,0.4-0.1,0.5,0
				c0.1,0.1,0.1,0.2,0.1,0.3c0,0.1,0,0.2-0.1,0.3C71.7-27.2,71.6-27.2,71.5-27.2z"/>
			<path class="st1" d="M67-42.9c-0.1,0-0.2,0-0.3-0.1c-0.1-0.1-0.1-0.2-0.1-0.3c0-0.1,0-0.2,0.1-0.3c0.1-0.1,0.4-0.1,0.5,0
				c0.1,0.1,0.1,0.2,0.1,0.3c0,0.1,0,0.2-0.1,0.3C67.2-43,67.1-42.9,67-42.9z"/>
			<path class="st1" d="M71.3-49.7c-0.1,0-0.2,0-0.3-0.1C71-49.9,71-50,71-50.1c0-0.1,0-0.2,0.1-0.3c0.1-0.1,0.4-0.1,0.5,0
				c0.1,0.1,0.1,0.2,0.1,0.3c0,0.1,0,0.2-0.1,0.3C71.5-49.7,71.4-49.7,71.3-49.7z"/>
			<path class="st1" d="M71.5-43.7c-0.1,0-0.2,0-0.3-0.1c-0.1-0.1-0.1-0.2-0.1-0.3c0-0.1,0-0.2,0.1-0.3c0.1-0.1,0.4-0.1,0.5,0
				c0.1,0.1,0.1,0.2,0.1,0.3c0,0.1,0,0.2-0.1,0.3C71.7-43.7,71.6-43.7,71.5-43.7z"/>
			<path class="st1" d="M71.5-32.8c-0.1,0-0.2,0-0.3-0.1c-0.1-0.1-0.1-0.2-0.1-0.3c0-0.1,0-0.2,0.1-0.3c0.1-0.1,0.4-0.1,0.5,0
				c0.1,0.1,0.1,0.2,0.1,0.3c0,0.1,0,0.2-0.1,0.3C71.7-32.8,71.6-32.8,71.5-32.8z"/>
			<path class="st1" d="M53.3-50.1c-0.1,0-0.2,0-0.3-0.1C53-50.2,53-50.3,53-50.4c0-0.1,0-0.2,0.1-0.3c0.1-0.1,0.4-0.1,0.5,0
				c0.1,0.1,0.1,0.2,0.1,0.3c0,0.1,0,0.2-0.1,0.3C53.5-50.1,53.4-50.1,53.3-50.1z"/>
			<path class="st1" d="M52.2-59.2c-0.1,0-0.2,0-0.3-0.1c-0.1-0.1-0.1-0.2-0.1-0.3c0-0.1,0-0.2,0.1-0.3c0.1-0.1,0.4-0.1,0.5,0
				c0.1,0.1,0.1,0.2,0.1,0.3c0,0.1,0,0.2-0.1,0.3C52.4-59.3,52.3-59.2,52.2-59.2z"/>
			<path class="st1" d="M50.2-37.9c-0.1,0-0.2,0-0.3-0.1c-0.1-0.1-0.1-0.2-0.1-0.3s0-0.2,0.1-0.3c0.1-0.1,0.4-0.1,0.5,0
				c0.1,0.1,0.1,0.2,0.1,0.3s0,0.2-0.1,0.3C50.3-37.9,50.3-37.9,50.2-37.9z"/>
			<path class="st1" d="M58.1-41.8c-0.1,0-0.2,0-0.3-0.1c-0.1-0.1-0.1-0.2-0.1-0.3c0-0.1,0-0.2,0.1-0.3c0.1-0.1,0.4-0.1,0.5,0
				c0.1,0.1,0.1,0.2,0.1,0.3c0,0.1,0,0.2-0.1,0.3C58.3-41.8,58.2-41.8,58.1-41.8z"/>
			<path class="st1" d="M50.7-46.7c-0.1,0-0.2,0-0.3-0.1c-0.1-0.1-0.1-0.2-0.1-0.3c0-0.1,0-0.2,0.1-0.3c0.1-0.1,0.4-0.1,0.5,0
				c0.1,0.1,0.1,0.2,0.1,0.3c0,0.1,0,0.2-0.1,0.3C50.9-46.7,50.8-46.7,50.7-46.7z"/>
			<path class="st1" d="M55.6-64.1c-0.1,0-0.2,0-0.3-0.1c-0.1-0.1-0.1-0.2-0.1-0.3s0-0.2,0.1-0.3c0.1-0.1,0.4-0.1,0.5,0
				c0.1,0.1,0.1,0.2,0.1,0.3s0,0.2-0.1,0.3C55.8-64.2,55.7-64.1,55.6-64.1z"/>
			<path class="st1" d="M56.9-66.6c-0.1,0-0.2,0-0.3-0.1c-0.1-0.1-0.1-0.2-0.1-0.3c0-0.1,0-0.2,0.1-0.3c0.1-0.1,0.4-0.1,0.5,0
				c0.1,0.1,0.1,0.2,0.1,0.3c0,0.1,0,0.2-0.1,0.3C57.1-66.6,57-66.6,56.9-66.6z"/>
			<path class="st1" d="M63.8-47.1c-0.1,0-0.2,0-0.3-0.1c-0.1-0.1-0.1-0.2-0.1-0.3c0-0.1,0-0.2,0.1-0.3c0.1-0.1,0.4-0.1,0.5,0
				c0.1,0.1,0.1,0.2,0.1,0.3c0,0.1,0,0.2-0.1,0.3C64-47.1,63.9-47.1,63.8-47.1z"/>
			<path class="st1" d="M68.9-62.1c-0.1,0-0.2,0-0.3-0.1c-0.1-0.1-0.1-0.2-0.1-0.3c0-0.1,0-0.2,0.1-0.3c0.1-0.1,0.4-0.1,0.5,0
				c0.1,0.1,0.1,0.2,0.1,0.3c0,0.1,0,0.2-0.1,0.3C69.1-62.1,69-62.1,68.9-62.1z"/>
			<path class="st1" d="M66.3-70.7c-0.1,0-0.2,0-0.3-0.1c-0.1-0.1-0.1-0.2-0.1-0.3c0-0.1,0-0.2,0.1-0.3c0.1-0.1,0.4-0.1,0.5,0
				c0.1,0.1,0.1,0.2,0.1,0.3c0,0.1,0,0.2-0.1,0.3C66.5-70.7,66.4-70.7,66.3-70.7z"/>
			<path class="st1" d="M52.6-68.6c-0.1,0-0.2,0-0.3-0.1c-0.1-0.1-0.1-0.2-0.1-0.3s0-0.2,0.1-0.3c0.1-0.2,0.4-0.1,0.5,0
				c0.1,0.1,0.1,0.2,0.1,0.3s0,0.2-0.1,0.3C52.8-68.7,52.7-68.6,52.6-68.6z"/>
			<path class="st1" d="M63.7-66.4c-0.1,0-0.2,0-0.3-0.1c-0.1-0.1-0.1-0.2-0.1-0.3s0-0.2,0.1-0.3c0.1-0.1,0.4-0.1,0.5,0
				c0.1,0.1,0.1,0.2,0.1,0.3s0,0.2-0.1,0.3C63.9-66.4,63.8-66.4,63.7-66.4z"/>
			<path class="st1" d="M67.6-52.9c-0.1,0-0.2,0-0.3-0.1c-0.1-0.1-0.1-0.2-0.1-0.3s0-0.2,0.1-0.3c0.1-0.1,0.4-0.1,0.5,0
				c0.1,0.1,0.1,0.2,0.1,0.3s0,0.2-0.1,0.3C67.8-52.9,67.7-52.9,67.6-52.9z"/>
			<path class="st1" d="M70.4-55.5c-0.1,0-0.2,0-0.3-0.1c-0.1-0.1-0.1-0.2-0.1-0.3c0-0.1,0-0.2,0.1-0.3c0.1-0.1,0.4-0.1,0.5,0
				c0.1,0.1,0.1,0.2,0.1,0.3c0,0.1,0,0.2-0.1,0.3C70.6-55.5,70.5-55.5,70.4-55.5z"/>
			<path class="st1" d="M61.2-69.8c-0.1,0-0.2,0-0.3-0.1c-0.1-0.1-0.1-0.2-0.1-0.3c0-0.1,0-0.2,0.1-0.3c0.1-0.1,0.4-0.1,0.5,0
				c0.1,0.1,0.1,0.2,0.1,0.3c0,0.1,0,0.2-0.1,0.3C61.4-69.8,61.3-69.8,61.2-69.8z"/>
			<path class="st1" d="M68.7-47.1c-0.1,0-0.2,0-0.3-0.1c-0.1-0.1-0.1-0.2-0.1-0.3c0-0.1,0-0.2,0.1-0.3c0.1-0.1,0.4-0.1,0.5,0
				c0.1,0.1,0.1,0.2,0.1,0.3c0,0.1,0,0.2-0.1,0.3C68.9-47.1,68.8-47.1,68.7-47.1z"/>
			<path class="st1" d="M51.1-64.1c-0.1,0-0.2,0-0.3-0.1c-0.1-0.1-0.1-0.2-0.1-0.3s0-0.2,0.1-0.3c0.1-0.1,0.4-0.1,0.5,0
				c0.1,0.1,0.1,0.2,0.1,0.3s0,0.2-0.1,0.3C51.3-64.2,51.2-64.1,51.1-64.1z"/>
			<path class="st1" d="M51.1-54.8c-0.1,0-0.2,0-0.3-0.1c-0.1-0.1-0.1-0.2-0.1-0.3c0-0.1,0-0.2,0.1-0.3c0.1-0.1,0.4-0.1,0.5,0
				c0.1,0.1,0.1,0.2,0.1,0.3c0,0.1,0,0.2-0.1,0.3C51.3-54.8,51.2-54.8,51.1-54.8z"/>
			<path class="st1" d="M65-30.8c-0.1,0-0.2,0-0.3-0.1c-0.1-0.1-0.1-0.2-0.1-0.3c0-0.1,0-0.2,0.1-0.3c0.1-0.1,0.4-0.1,0.5,0
				c0.1,0.1,0.1,0.2,0.1,0.3c0,0.1,0,0.2-0.1,0.3C65.2-30.8,65.1-30.8,65-30.8z"/>
			<path class="st1" d="M62.7-38.6c-0.1,0-0.2,0-0.3-0.1c-0.1-0.1-0.1-0.2-0.1-0.3s0-0.2,0.1-0.3c0.1-0.1,0.4-0.2,0.5,0
				c0.1,0.1,0.1,0.2,0.1,0.3s0,0.2-0.1,0.3C62.9-38.7,62.8-38.6,62.7-38.6z"/>
			<path class="st1" d="M59.2-32.6c-0.1,0-0.2,0-0.3-0.1c-0.1-0.1-0.1-0.2-0.1-0.3s0.1-0.2,0.1-0.3c0.1-0.1,0.4-0.1,0.5,0
				c0.1,0.1,0.1,0.2,0.1,0.3s-0.1,0.2-0.1,0.3C59.3-32.7,59.3-32.6,59.2-32.6z"/>
			<path class="st1" d="M67.8-36.9c-0.1,0-0.2,0-0.3-0.1c-0.1-0.1-0.1-0.2-0.1-0.3c0-0.1,0-0.2,0.1-0.3c0.1-0.1,0.4-0.1,0.5,0
				c0.1,0.1,0.1,0.2,0.1,0.3c0,0.1,0,0.2-0.1,0.3C68-37,67.9-36.9,67.8-36.9z"/>
			<path class="st1" d="M60.3-54.2c-0.1,0-0.2,0-0.3-0.1c-0.1-0.1-0.1-0.2-0.1-0.3c0-0.1,0-0.2,0.1-0.3c0.1-0.1,0.4-0.1,0.5,0
				c0.1,0.1,0.1,0.2,0.1,0.3c0,0.1,0,0.2-0.1,0.3C60.5-54.2,60.4-54.2,60.3-54.2z"/>
			<path class="st1" d="M60.7-50.2c-0.1,0-0.2,0-0.3-0.1c-0.1,0-0.1-0.1-0.1-0.2c0-0.1,0-0.2,0.1-0.3c0.1-0.1,0.4-0.1,0.5,0
				c0.1,0.1,0.1,0.2,0.1,0.3c0,0.1-0.1,0.2-0.1,0.3C60.9-50.3,60.8-50.2,60.7-50.2z"/>
			<path class="st1" d="M62.9-60.4c-0.1,0-0.2,0-0.3-0.1c-0.1-0.1-0.1-0.2-0.1-0.3s0-0.2,0.1-0.3c0.1-0.1,0.4-0.1,0.5,0
				c0.1,0.1,0.1,0.2,0.1,0.3s0,0.2-0.1,0.3C63.1-60.4,63-60.4,62.9-60.4z"/>
			<path class="st1" d="M59.5-61.3c-0.1,0-0.2,0-0.3-0.1c-0.1-0.1-0.1-0.2-0.1-0.3c0-0.1,0-0.2,0.1-0.3c0.1-0.1,0.4-0.1,0.5,0
				c0.1,0.1,0.1,0.2,0.1,0.3c0,0.1,0,0.2-0.1,0.3C59.7-61.3,59.6-61.3,59.5-61.3z"/>
			<path class="st1" d="M57.1-58.1c-0.1,0-0.2,0-0.3-0.1c-0.1-0.1-0.1-0.2-0.1-0.3s0-0.2,0.1-0.3c0.1-0.1,0.4-0.1,0.5,0
				c0.1,0.1,0.1,0.2,0.1,0.3s0,0.2-0.1,0.3C57.3-58.2,57.2-58.1,57.1-58.1z"/>
			<path class="st1" d="M65.9-56.2c-0.1,0-0.2,0-0.3-0.1c-0.1-0.1-0.1-0.2-0.1-0.3c0-0.1,0-0.2,0.1-0.3c0.1-0.1,0.4-0.1,0.5,0
				c0.1,0.1,0.1,0.2,0.1,0.3c0,0.1,0,0.2-0.1,0.3C66.1-56.3,66-56.2,65.9-56.2z"/>
			<path class="st1" d="M55.8-72c-0.1,0-0.2,0-0.3-0.1c-0.1-0.1-0.1-0.2-0.1-0.3c0-0.1,0-0.2,0.1-0.3c0.1-0.1,0.4-0.1,0.5,0
				c0.1,0.1,0.1,0.2,0.1,0.3c0,0.1,0,0.2-0.1,0.3C56-72,55.9-72,55.8-72z"/>
			<path class="st1" d="M45.1-25.5c-0.1,0-0.2,0-0.3-0.1c-0.1-0.1-0.1-0.2-0.1-0.3s0-0.2,0.1-0.3c0.1-0.1,0.4-0.1,0.5,0
				c0.1,0.1,0.1,0.2,0.1,0.3c0,0.1,0,0.2-0.1,0.3C45.3-25.5,45.2-25.5,45.1-25.5z"/>
			<path class="st1" d="M40.6-26.2c-0.1,0-0.2,0-0.3-0.1c-0.1-0.1-0.1-0.2-0.1-0.3c0-0.1,0-0.2,0.1-0.3c0.1-0.1,0.4-0.1,0.5,0
				c0.1,0.1,0.1,0.2,0.1,0.3c0,0.1,0,0.2-0.1,0.3C40.8-26.3,40.7-26.2,40.6-26.2z"/>
			<path class="st1" d="M9.1-60.4c-0.1,0-0.2,0-0.3-0.1c-0.1-0.1-0.1-0.2-0.1-0.3s0-0.2,0.1-0.3c0.1-0.1,0.4-0.1,0.5,0
				c0.1,0.1,0.1,0.2,0.1,0.3s0,0.2-0.1,0.3C9.3-60.4,9.2-60.4,9.1-60.4z"/>
			<path class="st1" d="M17.5-59.1c-0.1,0-0.2,0-0.3-0.1c-0.1-0.1-0.1-0.2-0.1-0.3c0-0.1,0-0.2,0.1-0.3c0.1-0.1,0.4-0.1,0.5,0
				c0.1,0.1,0.1,0.2,0.1,0.3c0,0.1,0,0.2-0.1,0.3C17.7-59.1,17.6-59.1,17.5-59.1z"/>
			<path class="st1" d="M3.3-60.9c-0.1,0-0.2,0-0.3-0.1c-0.1-0.1-0.1-0.2-0.1-0.3c0-0.1,0-0.2,0.1-0.3c0.1-0.1,0.4-0.1,0.5,0
				c0.1,0.1,0.1,0.2,0.1,0.3c0,0.1,0,0.2-0.1,0.3C3.5-61,3.4-60.9,3.3-60.9z"/>
			<path class="st1" d="M14.9-55.3c-0.1,0-0.2,0-0.3-0.1c-0.1-0.1-0.1-0.2-0.1-0.3c0-0.1,0.1-0.2,0.1-0.3c0.1-0.1,0.4-0.1,0.5,0
				c0.1,0.1,0.1,0.2,0.1,0.3c0,0.1,0,0.2-0.1,0.3C15.1-55.3,15-55.3,14.9-55.3z"/>
			<path class="st1" d="M0.7-56.2c-0.1,0-0.2,0-0.3-0.1c-0.1-0.1-0.1-0.2-0.1-0.3c0-0.1,0.1-0.2,0.1-0.3c0.1-0.1,0.4-0.1,0.5,0
				C1-56.8,1-56.7,1-56.6c0,0.1,0,0.2-0.1,0.3C0.9-56.3,0.8-56.2,0.7-56.2z"/>
			<path class="st1" d="M8.5-54.8c-0.1,0-0.2,0-0.3-0.1c-0.1-0.1-0.1-0.2-0.1-0.3c0-0.1,0-0.2,0.1-0.3c0.1-0.1,0.4-0.1,0.5,0
				c0.1,0.1,0.1,0.2,0.1,0.3c0,0.1,0,0.2-0.1,0.3C8.7-54.8,8.6-54.8,8.5-54.8z"/>
			<path class="st1" d="M23.7-61.9c-0.1,0-0.2,0-0.3-0.1c-0.1-0.1-0.1-0.2-0.1-0.3s0-0.2,0.1-0.3c0.1-0.1,0.4-0.1,0.5,0
				c0.1,0.1,0.1,0.2,0.1,0.3s0,0.2-0.1,0.3C23.9-61.9,23.8-61.9,23.7-61.9z"/>
			<path class="st1" d="M29.5-54.4c-0.1,0-0.2,0-0.3-0.1c-0.1-0.1-0.1-0.2-0.1-0.3s0-0.2,0.1-0.3c0.2-0.1,0.4-0.1,0.5,0
				c0.1,0.1,0.1,0.2,0.1,0.3s0,0.2-0.1,0.3S29.6-54.4,29.5-54.4z"/>
			<path class="st1" d="M40.2-59.1c-0.1,0-0.2,0-0.3-0.1c-0.1-0.1-0.1-0.2-0.1-0.3c0-0.1,0-0.2,0.1-0.3c0.1-0.1,0.4-0.1,0.5,0
				c0.1,0.1,0.1,0.2,0.1,0.3c0,0.1,0,0.2-0.1,0.3C40.4-59.1,40.3-59.1,40.2-59.1z"/>
			<path class="st1" d="M23.6-57.8c-0.1,0-0.2,0-0.3-0.1c-0.1-0.1-0.1-0.2-0.1-0.3c0-0.1,0-0.2,0.1-0.3c0.1-0.1,0.4-0.1,0.5,0
				c0.1,0.1,0.1,0.2,0.1,0.3c0,0.1,0,0.2-0.1,0.3C23.8-57.8,23.7-57.8,23.6-57.8z"/>
			<path class="st1" d="M19.6-56.1c-0.1,0-0.2,0-0.3-0.1c-0.1-0.1-0.1-0.2-0.1-0.3c0-0.1,0-0.2,0.1-0.3c0.1-0.1,0.4-0.1,0.5,0
				c0.1,0.1,0.1,0.2,0.1,0.3c0,0.1,0,0.2-0.1,0.3C19.8-56.1,19.7-56.1,19.6-56.1z"/>
			<path class="st1" d="M32.7-56.4c-0.1,0-0.2,0-0.3-0.1c-0.1-0.1-0.1-0.2-0.1-0.3c0-0.1,0-0.2,0.1-0.3c0.1-0.1,0.4-0.1,0.5,0
				c0.1,0.1,0.1,0.2,0.1,0.3c0,0.1,0,0.2-0.1,0.3C32.9-56.5,32.8-56.4,32.7-56.4z"/>
			<path class="st1" d="M36.5-62.2c-0.1,0-0.2,0-0.3-0.1c-0.1-0.1-0.1-0.2-0.1-0.3c0-0.1,0-0.2,0.1-0.3c0.1-0.1,0.4-0.1,0.5,0
				c0.1,0.1,0.1,0.2,0.1,0.3c0,0.1,0,0.2-0.1,0.3C36.7-62.3,36.6-62.2,36.5-62.2z"/>
			<path class="st1" d="M37.6-56.4c-0.1,0-0.2,0-0.3-0.1c-0.1-0.1-0.1-0.2-0.1-0.3c0-0.1,0-0.2,0.1-0.3c0.1-0.1,0.4-0.1,0.5,0
				c0.1,0.1,0.1,0.2,0.1,0.3c0,0.1,0,0.2-0.1,0.3C37.8-56.5,37.7-56.4,37.6-56.4z"/>
			<path class="st1" d="M42.8-59.6c-0.1,0-0.2,0-0.3-0.1c-0.1-0.1-0.1-0.2-0.1-0.3s0-0.2,0.1-0.3c0.1-0.1,0.4-0.1,0.5,0
				c0.1,0.1,0.1,0.2,0.1,0.3s0,0.2-0.1,0.3C43-59.7,42.9-59.6,42.8-59.6z"/>
			<path class="st1" d="M29.5-59.6c-0.1,0-0.2,0-0.3-0.1c-0.1-0.1-0.1-0.2-0.1-0.3s0-0.2,0.1-0.3c0.2-0.1,0.4-0.1,0.5,0
				c0.1,0.1,0.1,0.2,0.1,0.3s0,0.2-0.1,0.3C29.7-59.7,29.6-59.6,29.5-59.6z"/>
			<path class="st1" d="M14.2-28.1c-0.1,0-0.2,0-0.3-0.1s-0.1-0.2-0.1-0.3s0-0.2,0.1-0.3c0.1-0.1,0.4-0.1,0.5,0
				c0.1,0.1,0.1,0.2,0.1,0.3s0,0.2-0.1,0.3C14.3-28.2,14.3-28.1,14.2-28.1z"/>
			<path class="st1" d="M3.1-72.6c-0.1,0-0.2,0-0.3-0.1c-0.1-0.1-0.1-0.2-0.1-0.3c0-0.1,0-0.2,0.1-0.3c0.1-0.1,0.4-0.1,0.5,0
				c0.1,0.1,0.1,0.2,0.1,0.3c0,0.1,0,0.2-0.1,0.3C3.3-72.6,3.2-72.6,3.1-72.6z"/>
			<path class="st1" d="M17.9-72.6c-0.1,0-0.2,0-0.3-0.1c-0.1-0.1-0.1-0.2-0.1-0.3c0-0.1,0-0.2,0.1-0.3c0.1-0.1,0.4-0.1,0.5,0
				c0.1,0.1,0.1,0.2,0.1,0.3c0,0.1,0,0.2-0.1,0.3C18.1-72.6,18-72.6,17.9-72.6z"/>
			<path class="st1" d="M39.7-72.4c-0.1,0-0.2,0-0.3-0.1c-0.1-0.1-0.1-0.2-0.1-0.3s0-0.2,0.1-0.3c0.2-0.2,0.4-0.2,0.5,0
				C40-73,40-72.8,40-72.8s0,0.2-0.1,0.3C39.9-72.4,39.8-72.4,39.7-72.4z"/>
			<path class="st1" d="M55.8,0c-0.1,0-0.2,0-0.3-0.1c-0.1-0.1-0.1-0.2-0.1-0.3c0-0.1,0-0.2,0.1-0.3c0.1-0.1,0.4-0.1,0.5,0
				c0.1,0.1,0.1,0.2,0.1,0.3c0,0.1,0,0.2-0.1,0.3C56,0,55.9,0,55.8,0z"/>
		</g>
		<g>
			<path class="st1" d="M3.1-72.6c-0.1,0-0.2,0-0.3-0.1c-0.1-0.1-0.1-0.2-0.1-0.3c0-0.1,0-0.2,0.1-0.3c0.1-0.1,0.4-0.1,0.5,0
				c0.1,0.1,0.1,0.2,0.1,0.3c0,0.1,0,0.2-0.1,0.3C3.3-72.6,3.2-72.6,3.1-72.6z"/>
			<path class="st1" d="M17.9-72.6c-0.1,0-0.2,0-0.3-0.1c-0.1-0.1-0.1-0.2-0.1-0.3c0-0.1,0-0.2,0.1-0.3c0.1-0.1,0.4-0.1,0.5,0
				c0.1,0.1,0.1,0.2,0.1,0.3c0,0.1,0,0.2-0.1,0.3C18.1-72.6,18-72.6,17.9-72.6z"/>
			<path class="st1" d="M39.7-72.4c-0.1,0-0.2,0-0.3-0.1c-0.1-0.1-0.1-0.2-0.1-0.3s0-0.2,0.1-0.3c0.1-0.1,0.4-0.1,0.5,0
				C40-73,40-72.8,40-72.8s0,0.2-0.1,0.3C39.9-72.4,39.8-72.4,39.7-72.4z"/>
			<path class="st1" d="M55.8-72c-0.1,0-0.2,0-0.3-0.1c-0.1-0.1-0.1-0.2-0.1-0.3c0-0.1,0-0.2,0.1-0.3c0.1-0.1,0.4-0.1,0.5,0
				c0.1,0.1,0.1,0.2,0.1,0.3c0,0.1,0,0.2-0.1,0.3C56-72,55.9-72,55.8-72z"/>
		</g>
	</g>
</pattern>
<pattern  id="SVGID_1_" xlink:href="#Stipple_Fine" patternTransform="matrix(4 0 0 4 21979.998 21041.9727)">
</pattern>
<rect class="st2" width="1366" height="800"/>
</svg>
